8888888888                888      8888888888                       
888                       888      888                              
888                       888      888                              
8888888  .d88b.   .d88b.  888      8888888 888d888 .d88b.   .d88b.  
888     d8P  Y8b d8P  Y8b 888      888     888P"  d8P  Y8b d8P  Y8b 
888     88888888 88888888 888      888     888    88888888 88888888 
888     Y8b.     Y8b.     888      888     888    Y8b.     Y8b.     
888      "Y8888   "Y8888  888      888     888     "Y8888   "Y8888  


Genre:Action | Comedy 
Language:English
IMDb: 
http://www.imdb.com/title/tt1232829
Source:1080p.BluRay.x264-SECTOR7 Thanks!
Encoder:Tony

Format : MPEG-4
Format profile : Base Media
Codec ID : isom
File size : 2.60 GiB
Duration : 1h 49mn
Overall bit rate mode : Variable
Overall bit rate : 3 395 Kbps

Video
ID : 1
Format : AVC
Format/Info : Advanced Video Codec
Format profile : High@L4.1
Format settings, CABAC : Yes
Format settings, ReFrames : 3 frames
Codec ID : avc1
Codec ID/Info : Advanced Video Coding
Duration : 1h 49mn
Bit rate : 3 000 Kbps
Maximum bit rate : 22.5 Mbps
Width : 1 280 pixels
Height : 536 pixels
Display aspect ratio : 2.40:1
Frame rate mode : Constant
Frame rate : 23.976 fps
Color space : YUV
Chroma subsampling : 4:2:0
Bit depth : 8 bits
Scan type : Progressive
Bits/(Pixel*Frame) : 0.182
Stream size : 2.27 GiB (87%)
Writing library : x264

Audio
ID : 2
Format : AAC
Format/Info : Advanced Audio Codec
Format profile : LC
Codec ID : 40
Duration : 1h 49mn
Bit rate mode : Variable
Bit rate : 433 Kbps
Maximum bit rate : 539 Kbps
Channel(s) : 6 channels
Channel positions : Front: L C R, Side: L R, LFE
Sampling rate : 48.0 KHz
Compression mode : Lossy
Stream size : 339 MiB (13%)


Plot:
A pair of underachieving cops are sent back to a local high school to blend in and bring down a synthetic drug ring


Screen Shots:
                
http://img233.imageshack.us/img233/8590/vlcsnap2012060909h09m58.png
 
http://img534.imageshack.us/img534/1980/vlcsnap2012060909h12m03.png
 
http://img262.imageshack.us/img262/3177/vlcsnap2012060909h11m45.png
 
http://img268.imageshack.us/img268/9813/vlcsnap2012060909h10m49.png


8888888888                888      8888888888                       
888                       888      888                              
888                       888      888                              
8888888  .d88b.   .d88b.  888      8888888 888d888 .d88b.   .d88b.  
888     d8P  Y8b d8P  Y8b 888      888     888P"  d8P  Y8b d8P  Y8b 
888     88888888 88888888 888      888     888    88888888 88888888 
888     Y8b.     Y8b.     888      888     888    Y8b.     Y8b.     
888      "Y8888   "Y8888  888      888     888     "Y8888   "Y8888  